<?xml version="1.0" standalone="no"?>
<!DOCTYPE svg PUBLIC "-//W3C//DTD SVG 20010904//EN"
 "http://www.w3.org/TR/2001/REC-SVG-20010904/DTD/svg10.dtd">
<svg version="1.0" xmlns="http://www.w3.org/2000/svg"
 width="1024.000000pt" height="1024.000000pt" viewBox="0 0 1024.000000 1024.000000"
 preserveAspectRatio="xMidYMid meet">
<metadata>
Created by potrace 1.14, written by Peter Selinger 2001-2017
</metadata>
<g transform="translate(0.000000,1024.000000) scale(0.100000,-0.100000)"
fill="#000000" stroke="none">
<path d="M0 5120 l0 -5120 5120 0 5120 0 0 5120 0 5120 -5120 0 -5120 0 0
-5120z m9115 425 c-5 -2 -82 -16 -170 -30 -656 -107 -1254 -385 -1680 -779
l-60 -56 -130 0 -130 1 81 77 c177 170 451 342 749 471 361 157 725 248 1260
314 41 5 92 6 80 2z m-4618 -435 c42 -58 130 -176 195 -263 65 -86 118 -160
118 -162 0 -3 -44 -5 -98 -5 l-98 0 -42 60 -43 60 -254 0 c-140 0 -255 4 -255
8 0 4 19 27 43 50 l42 42 173 2 174 3 -81 112 c-45 61 -81 114 -81 118 0 4 21
33 48 65 l47 58 17 -22 c10 -11 53 -68 95 -126z m2826 55 c48 -33 87 -62 87
-65 0 -3 -32 -24 -70 -48 l-70 -43 -112 82 c-62 45 -130 94 -150 108 -21 14
-37 28 -38 31 0 3 60 3 133 0 l134 -5 86 -60z m-4541 56 c25 -9 78 -59 78 -72
0 -5 -137 -9 -305 -9 l-305 0 0 -60 0 -60 258 0 c231 0 261 -2 299 -19 60 -28
76 -64 71 -167 -3 -71 -6 -86 -27 -108 -14 -14 -41 -30 -60 -36 -48 -13 -575
-13 -623 0 -20 6 -48 24 -62 41 -51 60 -58 59 299 59 l325 0 0 60 0 60 -256 0
c-274 0 -317 6 -356 47 -30 32 -38 149 -14 206 26 63 42 66 368 67 158 0 297
-4 310 -9z m1019 -1 c19 -5 48 -24 65 -41 28 -29 29 -35 29 -119 0 -74 -3 -91
-20 -110 -47 -52 -62 -55 -337 -58 l-258 -3 0 -105 0 -104 -85 0 -85 0 0 275
0 275 328 0 c184 0 342 -4 363 -10z m1905 -9 c12 -8 29 -27 38 -43 l17 -28
-315 0 -316 0 0 -175 0 -175 315 0 c173 0 315 -4 315 -9 0 -4 -10 -23 -23 -42
-38 -57 -65 -60 -392 -57 -325 3 -337 6 -369 73 -15 30 -17 63 -14 215 3 163
5 181 24 207 39 53 44 53 384 51 252 -2 319 -6 336 -17z m1034 -26 l0 -45
-375 0 -375 0 0 45 0 45 375 0 375 0 0 -45z m-242 -182 l-3 -48 -167 -3 -168
-2 0 -80 0 -80 288 -2 287 -3 0 -50 0 -50 -372 -3 -373 -2 0 185 0 185 256 0
255 0 -3 -47z m1169 -96 c121 -91 249 -184 271 -198 12 -8 22 -17 22 -21 0 -5
-57 -8 -127 -8 l-128 0 -42 33 c-23 17 -75 56 -116 86 l-75 55 62 47 c33 26
64 48 68 48 4 1 34 -18 65 -42z"/>
<path d="M3280 5071 l0 -71 224 0 c190 0 226 2 236 15 15 19 15 94 0 110 -7 6
-96 11 -235 13 l-225 3 0 -70z"/>
</g>
</svg>
